# xmcd CD database file
#
# Track frame offsets:
#	150
#	14980
#	35450
#	49148
#	64510
#	88400
#	101805
#	120198
#	133606
#	151040
#	176792
#	194375
#	206587
#	226888
#
# Disc length: 3262 seconds
#
# Revision: 1
# Processed by: cddbd v1.5.1PL2 Copyright (c) Steve Scherf et al.
# Submitted via: CDex 1.51
#
DISCID=bf0cbc0e
DTITLE=Tchavolo Schmitt - Loutcha
DYEAR=2005
DGENRE=Jazz
TTITLE0=Some of these days
TTITLE1=Antsela
TTITLE2=Pour Flavio
TTITLE3=Them there eyes
TTITLE4=Le soir
TTITLE5=Stomping at Decca
TTITLE6=Cheek to cheek
TTITLE7=Valse à Dora
TTITLE8=Que reste-t-il de nos amours ?
TTITLE9=What a difference a day made
TTITLE10=Ménilmontant
TTITLE11=Chez Jacquet
TTITLE12=Roses of Picardy
TTITLE13=Sweet Sue, just you
EXTD=YEAR: 2005
EXTT0=
EXTT1=
EXTT2=
EXTT3=
EXTT4=
EXTT5=
EXTT6=
EXTT7=
EXTT8=
EXTT9=
EXTT10=
EXTT11=
EXTT12=
EXTT13=
PLAYORDER=
